<svg xmlns="http://www.w3.org/2000/svg" width="562.54" height="115.18" viewBox="0 0 562.54 115.18">
  <defs>
    <style>
      .cls-1 {
        fill: #fff;
        fill-rule: evenodd;
      }
    </style>
  </defs>
  <g id="圖層_2" data-name="圖層 2">
    <g id="圖層_1-2" data-name="圖層 1">
      <g id="container-id1">
        <g id="id1">
          <g>
            <g id="id3">
              <path class="cls-1" d="M11.26,106.54l-5.5-12v-.26H3.66v15.44h2.1V99.21l4.71,10.21v.26H12l4.71-10.47v10.47h2.1V94.24H16.49Z"/>
            </g>
            <g id="id4">
              <path class="cls-1" d="M22.77,92.93a1.47,1.47,0,0,0-1.57,1.31,1.7,1.7,0,0,0,1.57,1.57,1.47,1.47,0,0,0,1.31-1.57A1.23,1.23,0,0,0,22.77,92.93Z"/>
            </g>
            <g id="id5">
              <path class="cls-1" d="M21.46,109.68h2.1V97.38h-2.1Z"/>
            </g>
            <g id="id6">
              <path class="cls-1" d="M32.46,97.12a4.76,4.76,0,0,0-3.67,1.57V97.38H26.7v12.3h2.09v-6.81c0-2.61,1.31-3.92,3.41-3.92s3.14,1.31,3.14,3.66v7.07h2.35v-7.07C37.43,99.21,35.34,97.12,32.46,97.12Z"/>
            </g>
            <g id="id7">
              <path class="cls-1" d="M40.31,109.68h2.1V97.38h-2.1Z"/>
            </g>
            <g id="id8">
              <path class="cls-1" d="M41.36,92.93a1.46,1.46,0,0,0-1.57,1.31,1.69,1.69,0,0,0,1.57,1.57,1.47,1.47,0,0,0,1.31-1.57A1.24,1.24,0,0,0,41.36,92.93Z"/>
            </g>
            <g id="id9">
              <path class="cls-1" d="M49.74,102.61h0c-1.57-.52-2.88-.78-2.88-2.09,0-.79,1-1.57,2.35-1.57A2.38,2.38,0,0,1,51.83,101v.26h2.09V101c-.26-2.35-1.83-3.92-4.71-3.92-2.62,0-4.45,1.57-4.45,3.66,0,2.62,2.36,3.14,4.19,3.67,1.57.52,2.62.78,2.62,1.83a2.12,2.12,0,0,1-2.36,1.83A2.65,2.65,0,0,1,46.33,106v-.27H44.24V106c.26,2.35,2.09,3.66,5,3.66,2.62,0,4.45-1.57,4.45-3.66C53.92,103.92,51.83,103.14,49.74,102.61Z"/>
            </g>
            <g id="id10">
              <path class="cls-1" d="M58.9,94.5H56.54v2.88H55v1.83h1.57V106c0,2.35,1.05,3.66,3.4,3.66h1.84v-1.83H60.21c-1.31,0-1.57-.26-1.57-1.57V99.47h3.14V97.64H58.64V94.5Z"/>
            </g>
            <g id="id11">
              <path class="cls-1" d="M69.63,97.12A5.18,5.18,0,0,0,66,98.42v-1.3h-2.1v12.3H66v-6.81c0-2.35,1-3.4,3.14-3.4h.78V97.12Z"/>
            </g>
            <g id="id12">
              <path class="cls-1" d="M76.44,106.8l-3.67-9.16v-.26H70.42l4.71,11.78-2.36,5.76h2.36L82.2,97.64l.26-.26H80.1Z"/>
            </g>
            <g id="id13">
              <path class="cls-1" d="M99,103.4A3.92,3.92,0,0,1,95,107.59c-1.83,0-3.92-1-3.92-4.19S93.19,99,95,99C97.9,99,99,101.3,99,103.4ZM95,97.12c-3.66,0-6,2.61-6,6.28a6.15,6.15,0,1,0,12.3,0C101,99.73,98.69,97.12,95,97.12Z"/>
            </g>
            <g id="id14">
              <path class="cls-1" d="M106,96.85c0-1.57.52-2.09,2.35-2.09h.26V92.67h-1.57c-.52,0-.78.26-1.31.26-.26,0-.26.26-.52.26-.26.26-.52.26-.78.78,0,.27-.27.27-.27.53a1.58,1.58,0,0,0-.26,1v1.83h-1.83v1.83h1.57v10.21H106V99.21h2.61V97.38H106Z"/>
            </g>
            <g id="id15">
              <path class="cls-1" d="M127.22,101.83c0,3.92-2.1,6-6,6h-2.62V96.07h2.62C125.12,96.07,127.22,97.9,127.22,101.83Zm-6-7.86h-4.71v15.45h4.71c5.23,0,8.11-2.88,8.11-7.85C129.31,96.85,126.43,94,121.2,94Z"/>
            </g>
            <g id="id16">
              <path class="cls-1" d="M132.72,92.93a1.46,1.46,0,0,0-1.57,1.31,1.69,1.69,0,0,0,1.57,1.57,1.47,1.47,0,0,0,1.3-1.57C134.29,93.45,133.5,92.93,132.72,92.93Z"/>
            </g>
            <g id="id17">
              <path class="cls-1" d="M131.67,109.68H134V97.38h-2.35Z"/>
            </g>
            <g id="id18">
              <path class="cls-1" d="M146.07,103.4a3.93,3.93,0,0,1-3.93,4.19c-2.36,0-3.93-1.84-3.93-4.45S139.78,99,142.14,99,146.07,100.78,146.07,103.4Zm0-4.45a5.73,5.73,0,0,0-4.19-1.83c-3.4,0-5.76,2.61-5.76,6.28s2.36,6.28,5.76,6.28a4.89,4.89,0,0,0,4.19-1.83v1.83a3.44,3.44,0,0,1-3.67,3.67,3.49,3.49,0,0,1-3.66-2.36v-.26h-2.1V111c.53,2.62,2.62,4.19,5.76,4.19a5.5,5.5,0,0,0,5.76-5.76v-12h-2.09Z"/>
            </g>
            <g id="id19">
              <path class="cls-1" d="M152.35,92.93a1.46,1.46,0,0,0-1.57,1.31,1.57,1.57,0,0,0,3.14,0A1.66,1.66,0,0,0,152.35,92.93Z"/>
            </g>
            <g id="id20">
              <path class="cls-1" d="M151,109.68h2.09V97.38H151Z"/>
            </g>
            <g id="id21">
              <path class="cls-1" d="M158.63,94.5h-2.09v2.88H155v1.83h1.57V106c0,2.35,1,3.66,3.4,3.66H162v-1.83H160.2c-1.31,0-1.57-.26-1.57-1.57V99.47h3.14V97.64h-3.14Z"/>
            </g>
            <g id="id22">
              <path class="cls-1" d="M169.36,107.85c-2.35,0-3.92-1.83-3.92-4.45S167,99,169.36,99a4.2,4.2,0,0,1,4.19,4.45C173.29,106,171.72,107.85,169.36,107.85Zm3.93-8.9a5.71,5.71,0,0,0-4.19-1.83c-3.4,0-5.76,2.61-5.76,6.28s2.36,6.28,5.76,6.28a5.91,5.91,0,0,0,4.45-1.83v1.83h1.83V97.38h-2.09Z"/>
            </g>
            <g id="id23">
              <path class="cls-1" d="M178.26,109.68h2.36V93.19h-2.36Z"/>
            </g>
            <g id="id24">
              <path class="cls-1" d="M197.37,104.18h-5l2.62-6.8Zm-1.31-9.94H194l-5.5,14.92-.26.52h2.36l1.31-3.4h6.28l1.31,3.14v.26h2.35l-5.76-15.44Z"/>
            </g>
            <g id="id25">
              <path class="cls-1" d="M206,96.85c0-1.57.52-2.09,2.36-2.09h.26V92.67h-1.57c-.53,0-.79.26-1.31.26-.26,0-.26.26-.52.26-.27.26-.53.26-.79.78-.26.27-.26.27-.26.53a1.58,1.58,0,0,0-.26,1v1.83h-1.57v1.83h1.57v10.21H206V99.21h2.88V97.38H206Z"/>
            </g>
            <g id="id26">
              <path class="cls-1" d="M213.08,96.85c0-1.57.52-2.09,2.35-2.09h.27V92.67h-1.57c-.53,0-.79.26-1.31.26-.26,0-.26.26-.53.26-.26.52-.26.78-.52,1s-.26.26-.26.52a1.59,1.59,0,0,0-.26,1v1.83h-1.84v1.83H211v10.21h2.1V99.47h2.62V97.64h-2.62Z"/>
            </g>
            <g id="id27">
              <path class="cls-1" d="M227.21,103.4a3.92,3.92,0,0,1-3.92,4.19c-2.36,0-3.93-1.84-3.93-4.45s1.57-4.45,3.93-4.45A4.79,4.79,0,0,1,227.21,103.4Zm0-4.45A5.68,5.68,0,0,0,223,97.12c-3.41,0-5.76,2.61-5.76,6.28s2.35,6.28,5.76,6.28a4.85,4.85,0,0,0,4.18-1.83v1.83h2.1V97.38h-2.1Z"/>
            </g>
            <g id="id28">
              <path class="cls-1" d="M233.23,92.93a1.23,1.23,0,0,0-1.3,1.31,1.45,1.45,0,1,0,2.88,0A1.67,1.67,0,0,0,233.23,92.93Z"/>
            </g>
            <g id="id29">
              <path class="cls-1" d="M232.19,109.68h2.09V97.38h-2.09Z"/>
            </g>
            <g id="id30">
              <path class="cls-1" d="M242.92,97.12a5.18,5.18,0,0,0-3.66,1.3v-1.3h-2.1v12.3h2.1v-6.81c0-2.35,1-3.4,3.14-3.4h.78V97.12Z"/>
            </g>
            <g id="id31">
              <path class="cls-1" d="M249.73,102.61h0c-1.57-.52-2.88-.78-2.88-2.09,0-.79,1-1.57,2.35-1.57,1.57,0,2.36.78,2.36,2.09v.26h2.09V101c-.26-2.35-1.83-3.92-4.71-3.92-2.35,0-4.45,1.57-4.45,3.66,0,2.62,2.36,3.14,4.45,3.67,1.57.52,2.62.78,2.62,1.83s-.79,1.83-2.36,1.83a2.73,2.73,0,0,1-2.88-1.83V106H244v.26c.26,2.35,2.35,3.66,5,3.66s4.19-1.57,4.19-3.66C253.65,103.92,251.56,103.14,249.73,102.61Z"/>
            </g>
            <g id="id32">
              <path class="cls-1" d="M13.35,53.66,14.92,51c.26-.26.26-.26.52-.26L27,50.52c.53,0,.79.52.79,1a18.78,18.78,0,0,1-3.93,5.76c-.52.26-.78.52-1.05.26Q18.45,55.63,13.35,53.66Zm4.19-20.15v3.14a.69.69,0,0,1-.79.78H8.38a.69.69,0,0,1-.79-.78V33.51a.7.7,0,0,1,.79-.79h8.37A.84.84,0,0,1,17.54,33.51ZM22,36.65V33.51a.69.69,0,0,1,.78-.79H30.1a.7.7,0,0,1,.79.79v3.14a.69.69,0,0,1-.79.78H22.77A.69.69,0,0,1,22,36.65Zm0-24.87V8.9a.25.25,0,0,1,.26-.26h8.12a.25.25,0,0,1,.26.26V12a.25.25,0,0,1-.26.26H22.25C22,12.3,22,12,22,11.78ZM30.63,17v3.15a.25.25,0,0,1-.26.26H22.25a.25.25,0,0,1-.26-.26V17a.25.25,0,0,1,.26-.26h8.12A.25.25,0,0,1,30.63,17ZM17.54,17v3.15a.25.25,0,0,1-.26.26H9.69a.26.26,0,0,1-.27-.26V17a.26.26,0,0,1,.27-.26H17A.91.91,0,0,1,17.54,17ZM9.42,11.78V8.9a.26.26,0,0,1,.27-.26H17a.26.26,0,0,1,.27.26V12a.26.26,0,0,1-.27.26H9.69C9.42,12.3,9.42,12,9.42,11.78ZM28.27,59.16a21.38,21.38,0,0,0,4.45-8.38c0-.26.26-.52.79-.52h9.16V46.59a.83.83,0,0,0-.79-.78l-24.08.26,2.36-3.93a.91.91,0,0,1,.52-.26H34.29a.84.84,0,0,0,.79-.78V28.79a.69.69,0,0,0-.79-.78H22V25.13H34.55a.83.83,0,0,0,.79-.79v-6.8a.69.69,0,0,1,.78-.79h3.41a.83.83,0,0,0,.78-.78V13.09a.84.84,0,0,0-.78-.79H36.12a.69.69,0,0,1-.78-.78V4.71a.83.83,0,0,0-.79-.78H22.25A.26.26,0,0,1,22,3.66V.26A.91.91,0,0,0,21.46,0H17.8a.25.25,0,0,0-.26.26V3.4a.25.25,0,0,1-.26.26H5.5c-.26.27-.79.53-.79,1v6.81a.69.69,0,0,1-.78.78H.79a.7.7,0,0,0-.79.79v3.14A.83.83,0,0,0,.79,17h3.4A.7.7,0,0,1,5,17.8v6.81a.7.7,0,0,0,.79.78H17.54v3.14H3.66a.83.83,0,0,0-.78.79v12.3a.84.84,0,0,0,.78.79H14.92l-2.36,3.92c-.26.26-.26.26-.78.26l-11,.27h0v3.66a.84.84,0,0,0,.78.79L8.64,51c.52,0,1,.79.78,1.05L6.28,57.33c-.26.26,0,.78.26,1l3.15,1.84L11,57.59c2.36.78,4.72,1.83,6.81,2.62a.75.75,0,0,1,0,1.31A43.72,43.72,0,0,1,4.19,65.7h0l.26,4.45h.26s10.47-1,18.85-6.8a.49.49,0,0,1,.78,0,54.19,54.19,0,0,1,8.38,5.23l.26.26,2.88-3.66-.26-.26a61.24,61.24,0,0,0-7.07-4.45C28,60.21,28,59.68,28.27,59.16Z"/>
            </g>
            <g id="id33">
              <path class="cls-1" d="M60.73,19.37a61.15,61.15,0,0,1-4.71,22,.5.5,0,0,1-.79,0c-3.92-8.12-6.28-16.23-6.8-22,0-.26.26-.26.52-.26H60.21C60.47,19.11,60.73,19.11,60.73,19.37ZM72.51,66.75c-5-4.71-9.69-11.52-14.14-19.11v-.26c4.19-8.38,6.29-17.8,6.81-28a.25.25,0,0,1,.26-.26h3.93c.26,0,.26-.26.26-.52V14.92a.25.25,0,0,0-.26-.26H49.74c-.27,0-.53-.26-.27-.52A88.26,88.26,0,0,0,51.83,1.05V.79L47.38.26V.52c0,.27-2.09,20.16-10.21,34l-.26.27,3.93,2.35.26-.26a43.53,43.53,0,0,0,3.66-7.85.49.49,0,0,1,.79,0,113.2,113.2,0,0,0,7.33,18.58v.26C46.33,59.94,38,65.44,37.69,65.44H38l2.35,3.67.26-.27A58.28,58.28,0,0,0,55.49,52.35c.27-.26.53-.26.53,0A95.94,95.94,0,0,0,69.11,69.63l.26.26,3.14-3.14Z"/>
            </g>
            <g id="id34">
              <path class="cls-1" d="M110.47,3.66l-4.19-1.83L106,1.57v.26c-.27.53-7.07,15.71-18.85,28.27l-.26.27,3.66,3.4.26-.26c1.84-2.1,3.67-4.19,5.76-6.81.26-.52,1.31-.26,1.31.52V69.11a.83.83,0,0,0,.79.78h3.4a.69.69,0,0,0,.78-.78v-51c0-.26,0-.26.27-.26,4.71-7.59,7.33-13.61,7.33-14.14Z"/>
            </g>
            <g id="id35">
              <path class="cls-1" d="M109.94,20.94h44.5a.69.69,0,0,0,.79-.78V16.49a.69.69,0,0,0-.79-.78H135.6a.7.7,0,0,1-.79-.79V1.31A.7.7,0,0,0,134,.52h-3.4a.7.7,0,0,0-.78.79V15.18a.7.7,0,0,1-.79.79H109.94a.83.83,0,0,0-.78.78v3.41A1.17,1.17,0,0,0,109.94,20.94Z"/>
            </g>
            <g id="id36">
              <path class="cls-1" d="M142.14,62c-.52,0-.79-.52-.79-1,5.24-16.49,8.12-32.46,8.38-33l.52-2.36-5-.78-.52,2.35a314,314,0,0,1-8.9,34.3c0,.26-.26.52-.79.52h-7.85a.84.84,0,0,1-.79-.79C124.6,49,122.77,36.91,122,31.15c-.26-2.36-.52-3.4-.52-3.93l-.26-2.35-5,.78.27,2.36c0,.26.26,1.83.52,3.93.52,4.18,2.36,16.49,4.45,29.05a.7.7,0,0,1-.79.79H108.9a.69.69,0,0,0-.79.78V66a.69.69,0,0,0,.79.78h47.38a.83.83,0,0,0,.78-.78V62.82a.69.69,0,0,0-.78-.78Z"/>
            </g>
            <g id="id37">
              <path class="cls-1" d="M199.47,24.08h-8.12a.73.73,0,0,1-.52-1.31C201.56,14.92,204.7,7.33,204.7,7.33A2.57,2.57,0,0,0,204.44,5a2.38,2.38,0,0,0-2.09-1h-19.9a.69.69,0,0,0-.78.78V7.85a.69.69,0,0,0,.78.79h14.14a.73.73,0,0,1,.52,1.31,56.85,56.85,0,0,1-5.76,6,.79.79,0,0,1-1,0,48.1,48.1,0,0,0-7.6-5.24v-.26l-2.09,3.67v.26l.26.26a41.85,41.85,0,0,1,5.76,3.93,1.18,1.18,0,0,1,0,1.3A76.52,76.52,0,0,1,173.55,27h-.26l1.83,4.45h.26c2.88-1.31,5.76-2.62,8.9-4.19v2.1h12.57a.69.69,0,0,1,.78.78v5.24a.69.69,0,0,1-.78.78H185.33a3.38,3.38,0,0,0-3.14,2.36l-3.14,13.35c-.26.26.26.79.52,1.05l3.93,1,.52-2.09h12.57a.69.69,0,0,1,.78.79c-.52,6.28-1.57,11.51-2.35,12.56-.79.79-4.45.79-7.07.52h-.26c-1.31,0-2.36-.26-3.41-.26H184v5h3.41c1,0,2.35.26,3.66.26,2.62,0,5.76-.26,7.59-2.36,3.14-3.4,3.67-15.44,3.93-19.11a2.8,2.8,0,0,0-.79-1.83,2.38,2.38,0,0,0-1.83-.79H186.12c-.53,0-.79-.52-.79-1l1-4.45c0-.26.26-.53.78-.53h10.21v1.31h4.19a.84.84,0,0,0,.79-.78V27.22A3,3,0,0,0,199.47,24.08Z"/>
            </g>
            <g id="id38">
              <path class="cls-1" d="M241.61,24.87a32.38,32.38,0,0,1-10-5c-.52-.26-.52-.78,0-1.3l5.76-5.24a.8.8,0,0,0,0-1L235.07,10a.8.8,0,0,0-1,0l-6.54,5.76a.8.8,0,0,1-1,0,39,39,0,0,1-3.4-3.15c-.53,0-.53-.52,0-.78,3.4-3.14,6-5.5,6-5.5l.26-.26-3.4-3.4h-.27s-2.35,2.35-6,5.49a.77.77,0,0,1-1,0,42.17,42.17,0,0,1-4.72-6.54l-.26-.26-4.19,2.62v.26C209.94,5,220.93,23.3,240,29.58h.26l1.31-4.71Z"/>
            </g>
            <g id="id39">
              <path class="cls-1" d="M214.65,50.26h9.68c.53,0,1,.78.79,1.05a29,29,0,0,1-4.71,5.76.8.8,0,0,1-1,0,24.47,24.47,0,0,1-5.23-5.76A.71.71,0,0,1,214.65,50.26ZM225.12,61c-.52-.26-.52-.78-.26-1.31a32.58,32.58,0,0,0,7.07-11.25,2,2,0,0,0-.53-2.1,3.33,3.33,0,0,0-1.83-1H209.94a2.37,2.37,0,0,0-1.83.78,1.73,1.73,0,0,0-.53,1.83c0,.27.79,5.76,7.59,12a1.2,1.2,0,0,1,0,1.31,41.17,41.17,0,0,1-12,4.72h-.26l1,5h.26a42.77,42.77,0,0,0,15.7-6.81.5.5,0,0,1,.79,0,62.82,62.82,0,0,0,15.18,6.81h.26l1.57-4.71h-.26A79,79,0,0,1,225.12,61Z"/>
            </g>
            <g id="id40">
              <path class="cls-1" d="M238.73,37.43l-1.83,3.14a5.45,5.45,0,0,1-4.45,2.62h-3.93a5.31,5.31,0,0,1-5.23-5.5V29.32c0-.53-.26-.79-.53-.79h-8.11v1.84c.26,13.35-7.85,14.13-8.12,14.13h-.26L206,42.14l-.26-2.35H206s4.19-.52,3.93-9.16c0-2.1-.26-4.19,1.31-5.76a3.55,3.55,0,0,1,2.88-1.05H223a5.76,5.76,0,0,1,5.49,5.76V38a.91.91,0,0,0,.26.52h3.93l.26-.26,1.84-3.14c.26-.26.78-.53,1-.26l2.88,1.57C238.73,36.65,239,37.17,238.73,37.43Z"/>
            </g>
            <g id="id41">
              <path class="cls-1" d="M290.3,28.79v-6a.83.83,0,0,1,.79-.78h14.13a.7.7,0,0,1,.79.78v6a.7.7,0,0,1-.79.79H291.09A1.16,1.16,0,0,1,290.3,28.79ZM306,35.08v6a.7.7,0,0,1-.79.78H291.09a.69.69,0,0,1-.79-.78v-6a.84.84,0,0,1,.79-.79h14.13A.85.85,0,0,1,306,35.08Zm-20.42,0v6a.69.69,0,0,1-.79.78h-12a.69.69,0,0,1-.78-.78A168.08,168.08,0,0,0,273,23a.7.7,0,0,1,.79-.79h11a.7.7,0,0,1,.79.79v5.75a.7.7,0,0,1-.79.79h-8.64a.69.69,0,0,0-.78.79v3.4a.69.69,0,0,0,.78.78h8.64C285.33,34.29,285.59,34.82,285.59,35.08ZM317.26,9.69v6.8a.84.84,0,0,1-.78.79H273.81a.85.85,0,0,1-.79-.79V9.69a.7.7,0,0,1,.79-.79h42.67A.83.83,0,0,1,317.26,9.69Zm9.43,56.8a48.51,48.51,0,0,1-13.35-6.55,1.14,1.14,0,0,1,0-1.3,84.71,84.71,0,0,0,8.11-6l.26-.27L318.57,49l-.26-.26-.26.26a70.09,70.09,0,0,1-9.16,6.28.51.51,0,0,1-.79-.26,43.92,43.92,0,0,1-5.5-7.33c-.26-.52,0-1,.79-1h22a.69.69,0,0,0,.78-.78v-3.4a.83.83,0,0,0-.78-.79H311.77a.83.83,0,0,1-.79-.78v-6a.83.83,0,0,1,.79-.79h9.68a.7.7,0,0,0,.79-.79v-3.4a.7.7,0,0,0-.79-.78h-9.68a.84.84,0,0,1-.79-.79v-5.5a.83.83,0,0,1,.79-.78h7.06A3,3,0,0,0,322,18.85V8.64a4.58,4.58,0,0,0-4.45-4.45H270.41a2.4,2.4,0,0,0-1.84.78,2.86,2.86,0,0,0-.78,1.84c0,.52,2.09,46.85-8.12,60.2l-.26.26,3.67,2.88.26.27.26-.27c3.14-4.18,5.76-11.78,7.07-22.25a.83.83,0,0,1,.78-.78h9.69a.69.69,0,0,1,.78.78V62.82a.83.83,0,0,1-.78.79l-7.07,1.31a.83.83,0,0,0-.78.78l.78,3.14c0,.53.52.79.79.53L301,64.66c.26,0,.79-.53.53-.79l-.53-3.4c0-.26-.52-.79-.78-.53L287.68,62.3a.69.69,0,0,1-.78-.78V47.64a.69.69,0,0,1,.78-.78h8.38c.26,0,.52.26.78.52,2.1,5,9.69,18.32,28.28,23.82h.26l1.31-4.71Z"/>
            </g>
            <g id="id42">
              <path class="cls-1" d="M356.27,13.35h13.87a.83.83,0,0,1,.78.79c-.78,3.66-2.09,10.2-2.87,15.7,0,.26-.27.53-.79.53h-7.85c-.26,0-.79-.27-.79-.53-.78-5.23-2.09-12-2.88-15.7C355.48,13.87,355.74,13.35,356.27,13.35Zm20.41,0h3.14a.7.7,0,0,0,.79-.79V9.16a.69.69,0,0,0-.79-.78H366.47a.7.7,0,0,1-.78-.79V2.09a.69.69,0,0,0-.79-.78h-3.4a.83.83,0,0,0-.78.78V7.85a.7.7,0,0,1-.79.79H346.32a.69.69,0,0,0-.79.78v3.14a.7.7,0,0,0,.79.79h3.4c.26,0,.79.26.79.52.78,3.14,2.09,10,3.14,15.71a.7.7,0,0,1-.79.79h-7.59a.69.69,0,0,0-.78.78v3.4a.83.83,0,0,0,.78.79h36.39a.83.83,0,0,0,.78-.79V31.41a.69.69,0,0,0-.78-.78h-7.59a.7.7,0,0,1-.79-.79c.79-5.5,2.36-12.3,2.88-15.7A.54.54,0,0,1,376.68,13.35Z"/>
            </g>
            <g id="id43">
              <path class="cls-1" d="M372.76,46.86V60.47a.83.83,0,0,1-.79.78H355a.69.69,0,0,1-.79-.78V46.86a.7.7,0,0,1,.79-.79h17A.84.84,0,0,1,372.76,46.86Zm1.57-5.76h-22a3,3,0,0,0-3.14,3.14V68.32a.7.7,0,0,0,.78.79h4.19V66h18.59v3.14H377a.7.7,0,0,0,.78-.79V44.5A3.65,3.65,0,0,0,374.33,41.1Z"/>
            </g>
            <g id="id44">
              <path class="cls-1" d="M403.91,29.84a.49.49,0,0,1,0-.78l5.23-16.23a5.79,5.79,0,0,0-.78-5.76,6,6,0,0,0-5-2.62h-12.3a4.58,4.58,0,0,0-4.45,4.45V69.63a.7.7,0,0,0,.79.79h3.4a.7.7,0,0,0,.78-.79V10.21a.85.85,0,0,1,.79-.79h11.26c.52,0,.78.27.78.53a1.18,1.18,0,0,1,0,1.31l-5.76,17.53a3.12,3.12,0,0,0,.26,2.62c4.19,6,9.43,17,7.07,22-1.05,1.83-3.4,2.88-7.33,2.88h-2.35V61h2.35c5.76,0,9.69-1.83,11.52-5.5C414.38,47.64,406.79,34.29,403.91,29.84Z"/>
            </g>
            <g id="id45">
              <path class="cls-1" d="M510.71,17.54a7.34,7.34,0,0,1-7.33,7.59c-5.24,0-7.59-3.93-7.59-7.59S498.14,10,503.38,10A7.49,7.49,0,0,1,510.71,17.54ZM503.38,6.28a11,11,0,0,0-11.26,11.26,11.26,11.26,0,0,0,22.52,0A11,11,0,0,0,503.38,6.28Z"/>
            </g>
            <g id="id46">
              <path class="cls-1" d="M535.05,40.31a7.33,7.33,0,0,1-7.33,7.59c-5.23,0-7.33-3.92-7.33-7.59a7.34,7.34,0,0,1,7.33-7.59C532.7,32.72,535.05,36.65,535.05,40.31Zm1.84-19.89a1.79,1.79,0,0,0-1.84,1.83v9.69c-1.31-1.57-3.66-2.88-7.33-2.88a11,11,0,0,0-11.25,11.25,11,11,0,0,0,11.25,11.26c3.67,0,6-1.31,7.33-2.88v.78a1.84,1.84,0,1,0,3.67,0V22.25C539,21.2,537.93,20.42,536.89,20.42Z"/>
            </g>
            <g id="id47">
              <path class="cls-1" d="M558.61,64.66a7.33,7.33,0,1,1-14.66,0c0-3.67,2.36-7.59,7.33-7.59A7.48,7.48,0,0,1,558.61,64.66Zm2.1-10.74a1.8,1.8,0,0,0-1.84,1.84v.78c-1.31-1.57-3.66-2.88-7.33-2.88a11.26,11.26,0,0,0,0,22.51,10.07,10.07,0,0,0,7.33-2.88v.79a1.84,1.84,0,0,0,3.67,0V56A1.87,1.87,0,0,0,560.71,53.92Z"/>
            </g>
            <g id="id48">
              <path class="cls-1" d="M472.23,5.76h0a11.16,11.16,0,0,0-9.42,4.71,10.44,10.44,0,0,0-9.17-4.71c-2.88,0-5.76,1-7.33,3.14V8.11a1.79,1.79,0,0,0-1.83-1.83,2,2,0,0,0-2.09,1.83v17.8a1.83,1.83,0,1,0,3.66,0V14.4a2,2,0,0,0,.26-1.05c1.05-2.62,3.67-4.19,7.07-4.19,5,0,7.33,3.93,7.33,7.59v9.16a1.84,1.84,0,1,0,3.67,0V17c0-3.66,2.35-7.59,7.33-7.59a6.89,6.89,0,0,1,6.54,3.67,9.41,9.41,0,0,1,1.05,5v8.12a1.83,1.83,0,1,0,3.66,0V17C483.48,10.21,479,5.76,472.23,5.76Z"/>
            </g>
          </g>
        </g>
      </g>
    </g>
  </g>
</svg>
