<svg xmlns="http://www.w3.org/2000/svg" viewBox="0 0 267.32 55.68"><defs><style>.cls-1{fill:#fff;}</style></defs><g id="圖層_2" data-name="圖層 2"><g id="圖層_1-2" data-name="圖層 1"><path class="cls-1" d="M24.63,44.69a17,17,0,1,1,17-17A17,17,0,0,1,24.63,44.69Zm0-33a16,16,0,1,0,16,16A16,16,0,0,0,24.63,11.67Z" transform="translate(0 0)"/><path class="cls-1" d="M27.52,52.3H21.75a.51.51,0,0,1-.52-.51V48.16a21.08,21.08,0,0,1-3.89-1l-1.82,3.14a.51.51,0,0,1-.7.19l-5-2.89a.49.49,0,0,1-.24-.31.48.48,0,0,1,.05-.39l1.81-3.15a21.32,21.32,0,0,1-2.85-2.85L5.45,42.68a.59.59,0,0,1-.39,0,.5.5,0,0,1-.31-.24l-2.89-5a.52.52,0,0,1-.06-.39A.57.57,0,0,1,2,36.78L5.19,35a20.24,20.24,0,0,1-1.05-3.9H.51A.51.51,0,0,1,0,30.56V24.78a.51.51,0,0,1,.51-.51H4.14a20.24,20.24,0,0,1,1.05-3.9L2,18.56a.56.56,0,0,1-.24-.32.54.54,0,0,1,.06-.39l2.89-5a.5.5,0,0,1,.31-.24.49.49,0,0,1,.39.05l3.14,1.82a21.32,21.32,0,0,1,2.85-2.85L9.63,8.48a.49.49,0,0,1-.05-.39.49.49,0,0,1,.24-.31l5-2.89a.51.51,0,0,1,.7.19l1.82,3.14a20.87,20.87,0,0,1,3.89-1V3.55A.52.52,0,0,1,21.75,3h5.77a.52.52,0,0,1,.52.52V7.18a20.87,20.87,0,0,1,3.89,1l1.82-3.14a.49.49,0,0,1,.31-.24.49.49,0,0,1,.39,0l5,2.89a.51.51,0,0,1,.19.7l-1.81,3.15a21.32,21.32,0,0,1,2.85,2.85l3.14-1.82a.49.49,0,0,1,.39-.05.5.5,0,0,1,.31.24l2.89,5a.54.54,0,0,1,.06.39.56.56,0,0,1-.24.32l-3.15,1.81a20.24,20.24,0,0,1,1.05,3.9h3.63a.51.51,0,0,1,.51.51v5.78a.51.51,0,0,1-.51.51H45.13A20.24,20.24,0,0,1,44.08,35l3.15,1.81a.57.57,0,0,1,.24.31.52.52,0,0,1-.06.39l-2.89,5a.5.5,0,0,1-.31.24.59.59,0,0,1-.39,0l-3.14-1.82a21.32,21.32,0,0,1-2.85,2.85l1.81,3.15a.51.51,0,0,1-.19.7l-5,2.89a.51.51,0,0,1-.7-.19l-1.82-3.14a21.08,21.08,0,0,1-3.89,1v3.63A.51.51,0,0,1,27.52,52.3Zm-5.26-1H27V47.72a.52.52,0,0,1,.44-.51A19.88,19.88,0,0,0,32,46a.51.51,0,0,1,.63.22l1.78,3.08,4.11-2.38-1.77-3.08a.51.51,0,0,1,.12-.66,19.87,19.87,0,0,0,3.31-3.3.5.5,0,0,1,.66-.13l3.08,1.78,2.38-4.11-3.08-1.78A.51.51,0,0,1,43,35a19.66,19.66,0,0,0,1.21-4.51.51.51,0,0,1,.51-.45h3.55V25.29H44.69a.5.5,0,0,1-.51-.44A19.66,19.66,0,0,0,43,20.34a.51.51,0,0,1,.22-.64l3.08-1.78-2.38-4.11-3.08,1.78a.51.51,0,0,1-.66-.13,19.5,19.5,0,0,0-3.31-3.3.51.51,0,0,1-.12-.66l1.77-3.09L34.38,6,32.6,9.12a.51.51,0,0,1-.63.22,19.6,19.6,0,0,0-4.52-1.21A.52.52,0,0,1,27,7.62V4.06H22.26V7.62a.52.52,0,0,1-.44.51A19.6,19.6,0,0,0,17.3,9.34a.51.51,0,0,1-.63-.22L14.89,6,10.77,8.41l1.78,3.09a.51.51,0,0,1-.12.66,19.5,19.5,0,0,0-3.31,3.3.51.51,0,0,1-.66.13L5.38,13.81,3,17.92,6.08,19.7a.51.51,0,0,1,.22.64,19.66,19.66,0,0,0-1.21,4.51.5.5,0,0,1-.51.44H1V30H4.58a.51.51,0,0,1,.51.45A19.66,19.66,0,0,0,6.3,35a.51.51,0,0,1-.22.64L3,37.42l2.38,4.11,3.08-1.78a.51.51,0,0,1,.66.13,19.87,19.87,0,0,0,3.31,3.3.51.51,0,0,1,.12.66l-1.78,3.08,4.12,2.38,1.78-3.08A.51.51,0,0,1,17.3,46a19.88,19.88,0,0,0,4.52,1.21.52.52,0,0,1,.44.51Z" transform="translate(0 0)"/><path class="cls-1" d="M22.9,32.68H17.65a8.42,8.42,0,0,1-1.53-3.81H22.9V24.76H16.55a8.62,8.62,0,0,1,6.35-5.51V15.08a12.7,12.7,0,0,0-7.11,21.71H22.9Z" transform="translate(0 0)"/><path class="cls-1" d="M24.63,15h-.11V40.47h4.11V36.79h4.85A12.71,12.71,0,0,0,24.63,15Zm7,17.73h-3V20.06a8.58,8.58,0,0,1,3,12.62Z" transform="translate(0 0)"/><path class="cls-1" d="M84.56,7.86c-.71-.19-1.42,1.35-1.42,1.35a34.68,34.68,0,0,1-5,.65c-.65,0-2.29,0-4.25,0,.09-1,.19-1.91.32-2.76C75.15.87,71.81.22,71.81.22S70.16-.93,70.45,2.05c.07.81.11,3.83.11,7.78l-7.51-.1a7.27,7.27,0,0,0-2.51-1.81c-1.16-.32-2.84.46-1.61,4.38s2.12,11.85,4,14c.5.56,1.93-1.55,1.93-1.55l5.66-.07c0,6.92-.1,12.73-.1,12.73s-.28,1.51,1.31,1.13c1.12-.26,1.85-2.41,1.85-4.68,0-1-.11-4.69-.12-9.22l5.7-.08s0,.71,1,.71,1.61-2.13,2.51-3.8,1.93-6.63,3.48-8.63S85.27,8.05,84.56,7.86ZM64.72,23.06a17.28,17.28,0,0,1-1-2.71,31.52,31.52,0,0,1,0-7.66,40.83,40.83,0,0,0,6.8.44c0,3,0,6.27,0,9.43ZM79.79,21.9c-.83,0-3.49.19-6.34.42,0-3,.08-6.25.25-9.23,4.43-.11,8.41-.4,8.41-.4C82.31,15.52,79.79,21.9,79.79,21.9Z" transform="translate(0 0)"/><path class="cls-1" d="M128.85,19.65c-3.27,1.06-4.54.49-4.54.49s.42-6.24,1.84-8.16c0,0,3-.77,2.06-2.87a2.17,2.17,0,0,0-3.83-.53s-6.32.71-7.67.56c0,0,.71-4.25.36-5.25s-3.62-3.12-4-2.2S113,9.36,113,9.36a65.33,65.33,0,0,1-7.09-.15s-3.2-.85-2.42,2.42,3.06,9.58,3.06,9.58-7.17-.22-8.38,0-1.06,4.18,2.06,4.11,11.14-1.35,11.64-1.13-3.27,8.66-10.15,9.65c0,0-.43.71.85.71s9.23-.71,12.92-10.72c0,0,10.71-.64,13.69-.14s4.62-2.91,3.41-4.4C132.54,19.29,132.11,18.58,128.85,19.65Zm-16.11,1.77-3.41-.28a83.43,83.43,0,0,1-2.13-8.45c-.07-.71,5.54-.71,5.54-.71Zm8.52-.35h-5.11V12s5.74-1,6,0S121.26,21.07,121.26,21.07Z" transform="translate(0 0)"/><path class="cls-1" d="M116.86,28.94s5.53,5.32,7.31,8,4.54-.78,3-3.34A9.44,9.44,0,0,0,116.86,28.94Z" transform="translate(0 0)"/><path class="cls-1" d="M160.11,4.64C160,4,150.63,7.4,148.5,7.84c-1.8.37-.95,2.23,0,3.7s1.07,12.65,1.07,12.65a2.2,2.2,0,0,0-1.06,2.18,2.39,2.39,0,0,0,2.69,2.22c9.58-4.88,8.16-8.41,8.16-8.41-3.83,2.66-6.17,2.87-6.17,2.87-.32-4.36.1-5.47.1-5.47,7.77-1.37,6.36-5.81,6.36-5.81s-6.43,2.87-7.17,2.13-.25-3.73-.25-3.73C162.13,8.58,160.11,4.64,160.11,4.64Z" transform="translate(0 0)"/><path class="cls-1" d="M174.9,4.18c-.63,0-8.16,2.48-10.5,2.2,0,0-2.34.07-2.48.85s0,30.23,0,30.23.49,1.06,2.2-.5,1.27-5.68,1.27-5.68-.68-22.14.05-22.56,5.73-.35,6.44.07S171,23.27,169.3,24.47a6,6,0,0,1-2.42-.14s.64,3.25,3.2,3.82,7.09-19.24,7-21.39S175.54,4.18,174.9,4.18Z" transform="translate(0 0)"/><path class="cls-1" d="M199.28,11.66V13.9a11.32,11.32,0,0,1-3.41.53c-1.38-.11-1.31,1.21-1.06,3.58.28,2.68.11,3.45.85,3.87s1.49-1.06,1.49-2.77c0-1-.52-1.91-.32-2.53.14-.43.8-.73,1.54-.84.56-.08.87.06,1,.34.49.83-.37,2.93-.13,4.2.32,1.71.53,2.07,1.49,1.67s.53-6.67.53-6.67,2.24-1.28,2.77-.85.21,3.23-.35,4.51a.6.6,0,0,0,.62.56c.58,0,2.92-4.25,2.85-6s-1.06-1.91-2.55-1.7a9.92,9.92,0,0,0-3.27,1.49l-.14-2.13s3.41-1.42,4.83-1.35,2.2-1.06.07-2c0,0-.29-.29-1.42.56a8.65,8.65,0,0,1-3.48,1.07l-.07-1.71a21.18,21.18,0,0,1,4.12-1.13s.78-.78-.71-1.35a1.21,1.21,0,0,0-1.78.85,4.49,4.49,0,0,1-1.49.36s-.28-3.05.29-4.33S199,.49,199,1.27s.5,5,.5,5-1.7.5-2.38,0c0,0,.11-3-2.77-2.76,0,0-.32.42,0,2.76a11.21,11.21,0,0,1-.14,4A8.27,8.27,0,0,1,190,11.56c-1.09-.11-1,3.92.74,3.62,2-.34,3.73-2,4.9-2.56A14.54,14.54,0,0,1,199.28,11.66Zm-1.88-3.3a5.4,5.4,0,0,0,2.06-.07v2a7.83,7.83,0,0,1-3.2,0C195.34,9.85,196.69,9.21,197.4,8.36Z" transform="translate(0 0)"/><path class="cls-1" d="M208.82,16.58c.08.61,1.49,1.36,1.85.44a34.91,34.91,0,0,0,.5-8.73c-.36-1.49-2.35-1.42-2.35-1.42s-.07,1.49,0,3.91S208.75,16,208.82,16.58Z" transform="translate(0 0)"/><path class="cls-1" d="M214.86,21.35c1.53.35,1.37-2.19,1.3-3.9s1-11.93.4-14c-.23-.76-1.91-1.35-2.48-.86a1.43,1.43,0,0,0-.44.9,25.46,25.46,0,0,0,.06,4.34c0,1.55,0,3.1,0,4.64,0,.44.08,4.33-.35,4.53l-.93.43C212.66,18.52,213.47,21,214.86,21.35Z" transform="translate(0 0)"/><path class="cls-1" d="M215.28,31c-2.27-1.14-9-5-10-6a.94.94,0,0,1,.42-1.07c.64-.42,4.05-.77,5.18-1.8s-.84-1.89-.84-1.89-2.36,2-4.76,1.89l.07-.33s1.24-1.63-2.42-1.56c0,0-.42.14,0,1.17l-.18,1.81a31.69,31.69,0,0,1-5.05.64c-1-.14-1,1.85-.44,2.56s.71.85,1.77.57,2.91-1.71,3.41-1.71.42.71.21,1-3.76,5.6-8.94,7.38c0,0-1.35.85.57.92s6.24-1.55,8.58-6c0,0,.5,4.61-.14,5.18,0,0-1,.28-.35,2.06s1.77,1.56,2.27.85a20.72,20.72,0,0,1,4.47-5.32s-.32-.71-3.05.78c-1.84,1-1.56-1.71-1.56-1.71s-.22-4.18.21-4.33,4.2,4,5.33,4.76,3.65,4.89,6.72,3.62,2-2.42,2-2.42A7.68,7.68,0,0,1,215.28,31Z" transform="translate(0 0)"/><path class="cls-1" d="M210.6,27.74a12.48,12.48,0,0,1,3-2.3c1.14-.42,1.66-2.82-.54-2.81C210.2,22.63,210.6,27.74,210.6,27.74Z" transform="translate(0 0)"/><path class="cls-1" d="M265.49,30.93a32.13,32.13,0,0,1-5.86-3.19s1.36-1.3,1.53-7.86c0,0,2.52-.58,2.63-2.43s-2.24-1.21-2.24-1.21-.75,2.09-4,2a7.32,7.32,0,0,0,1.27-5.22c-.42-3.09-1.91-1.86-2.34-1.14s-2.48,8-3.95,10h0A2.46,2.46,0,0,0,250,21l-1.07.47s-1.66.21-3.63.61V20.87a13.12,13.12,0,0,0,4.7-3.42c1.06-1.21.57-3.8-.87-3.8s-.78,1.16-1.36,2.8a5.59,5.59,0,0,1-2.47,2.61s.35-5.12.35-6.9a1.92,1.92,0,0,0-2.71-1.69c-.77.39,0,9.17,0,9.17a9.29,9.29,0,0,0-3.38-2.12c1-4.69,1.45-8.7,1.45-8.7s.58-1,8.12-.53c8,.47,8.79-.63,9.08-1.42S258,4.08,254.73,5s-13,.87-13,.87c-1.64,0-3.09,2.21-3.77,3.56s0,6-1.64,12.72a51.45,51.45,0,0,1-4,9.71c2.14-.71,3.81-3.46,5.09-6.83a5.86,5.86,0,0,0,1,1c1,.77-.58,9,1,9.18s2-2,1.83-3.38-1.35-5.62-.48-6.63,7.73-2.16,9.18-1.49-.48,8.12-.48,8.12h-1.55s-.77,3.21,1.35,3.39c.87.07,1.64-1.38,2.26-3.28,1.53.11,4.61,0,6.31-2.34,0,0,5.25,6.46,7.7,4.76S267.94,31.78,265.49,30.93ZM240,23.79a2.92,2.92,0,0,0-2-.21c.47-1.39.87-2.86,1.23-4.3,1.09.27,2.54.93,3.79,1.35v2A13,13,0,0,0,240,23.79Zm11.78,7.33a50.47,50.47,0,0,0,1.38-6.54,5,5,0,0,0,1.2-.39,6.81,6.81,0,0,0,2.13,3.55A5.7,5.7,0,0,1,251.73,31.12ZM258,26.46c-1.07.57-1.87-1.35-2.49-3s.78-1.4,1.56-2.12c0,0,1.89-.72,1.87.48S259.09,25.89,258,26.46Z" transform="translate(0 0)"/><path class="cls-1" d="M244.73,26.56s-2.34.18-2.34,1.18-.35,4,2.31,4.45,2.84-1.78,3.15-3.82C248.21,26.05,248.13,25.39,244.73,26.56Zm.35,4.3c-1.57-.14-1.55-2.81-1.55-2.81s2.62-1.38,3.26-.31S246.65,31,245.08,30.86Z" transform="translate(0 0)"/><path class="cls-1" d="M64.71,50.54v0a2.47,2.47,0,0,1-.82,2,3.13,3.13,0,0,1-2.22.78,2.9,2.9,0,0,1-2.29-1,3.64,3.64,0,0,1-.89-2.52V48.31a3.69,3.69,0,0,1,.89-2.53,2.9,2.9,0,0,1,2.29-1,3.23,3.23,0,0,1,2.24.75,2.46,2.46,0,0,1,.8,2v0H63.64a1.83,1.83,0,0,0-.52-1.38,2,2,0,0,0-1.44-.51,1.78,1.78,0,0,0-1.5.76,3.1,3.1,0,0,0-.56,1.88v1.49a3.14,3.14,0,0,0,.56,1.89,1.77,1.77,0,0,0,1.5.75,1.94,1.94,0,0,0,1.44-.5,1.84,1.84,0,0,0,.52-1.39Z" transform="translate(0 0)"/><path class="cls-1" d="M69.16,53.31a2.61,2.61,0,0,1-2.07-.85,3.28,3.28,0,0,1-.74-2.23V50a3.22,3.22,0,0,1,.77-2.2A2.41,2.41,0,0,1,69,46.92a2.23,2.23,0,0,1,1.85.76,3.21,3.21,0,0,1,.62,2v.59H67.52l0,0a2.59,2.59,0,0,0,.41,1.51,1.43,1.43,0,0,0,1.25.57,2.76,2.76,0,0,0,1-.16,2.29,2.29,0,0,0,.74-.45l.44.73a2.48,2.48,0,0,1-.87.54A3.42,3.42,0,0,1,69.16,53.31ZM69,47.8a1.2,1.2,0,0,0-1,.45,2.06,2.06,0,0,0-.47,1.16v0h2.78v-.09A1.79,1.79,0,0,0,70,48.24,1.18,1.18,0,0,0,69,47.8Z" transform="translate(0 0)"/><path class="cls-1" d="M74.3,47l.08.92a2.24,2.24,0,0,1,.77-.76,2.06,2.06,0,0,1,1.06-.27,2,2,0,0,1,1.54.58,2.54,2.54,0,0,1,.55,1.8v3.89H77.18V49.32a1.68,1.68,0,0,0-.32-1.15,1.31,1.31,0,0,0-1-.34A1.84,1.84,0,0,0,75,48a1.54,1.54,0,0,0-.57.59v4.57H73.3V47Z" transform="translate(0 0)"/><path class="cls-1" d="M82.07,45.54V47h1.17v.83H82.07V51.6a.84.84,0,0,0,.18.61.65.65,0,0,0,.48.18l.21,0,.2,0,.16.77a1.16,1.16,0,0,1-.37.17,2.12,2.12,0,0,1-.49.06,1.49,1.49,0,0,1-1.09-.41,1.81,1.81,0,0,1-.4-1.3V47.86H80V47h1V45.54Z" transform="translate(0 0)"/><path class="cls-1" d="M87.94,48l-.58,0a1.25,1.25,0,0,0-1.21.8v4.4H85V47h1l.1.9a2.18,2.18,0,0,1,.65-.75,1.5,1.5,0,0,1,.89-.26.86.86,0,0,1,.23,0l.19,0Z" transform="translate(0 0)"/><path class="cls-1" d="M93.48,53.19c0-.19-.07-.35-.09-.49s0-.29,0-.43a2.67,2.67,0,0,1-.82.74,2,2,0,0,1-1.08.3A2,2,0,0,1,90,52.82a1.84,1.84,0,0,1-.5-1.36,1.6,1.6,0,0,1,.71-1.38,3.38,3.38,0,0,1,1.94-.5h1.22V49a1.15,1.15,0,0,0-.33-.86,1.29,1.29,0,0,0-.93-.31,1.39,1.39,0,0,0-.89.27.82.82,0,0,0-.33.66H89.8v0a1.53,1.53,0,0,1,.63-1.23,2.62,2.62,0,0,1,1.73-.55,2.53,2.53,0,0,1,1.69.53A1.88,1.88,0,0,1,94.47,49v3a4.49,4.49,0,0,0,0,.64,3.19,3.19,0,0,0,.12.6Zm-1.87-.82a2,2,0,0,0,1.1-.31,1.49,1.49,0,0,0,.64-.72v-1H92.09a1.61,1.61,0,0,0-1.08.34,1,1,0,0,0-.41.8.84.84,0,0,0,.26.65A1.06,1.06,0,0,0,91.61,52.37Z" transform="translate(0 0)"/><path class="cls-1" d="M97.9,53.19H96.78V44.31H97.9Z" transform="translate(0 0)"/><path class="cls-1" d="M108.37,49.35H105v3h4v.88h-5.11V44.9h5v.88H105v2.68h3.41Z" transform="translate(0 0)"/><path class="cls-1" d="M111.71,47l.08.92a2.15,2.15,0,0,1,.77-.76,2.06,2.06,0,0,1,1.06-.27,2,2,0,0,1,1.54.58,2.58,2.58,0,0,1,.55,1.8v3.89h-1.13V49.32a1.63,1.63,0,0,0-.32-1.15,1.27,1.27,0,0,0-1-.34,1.82,1.82,0,0,0-.88.2,1.54,1.54,0,0,0-.57.59v4.57h-1.12V47Z" transform="translate(0 0)"/><path class="cls-1" d="M117.72,50.22a4.1,4.1,0,0,1,.63-2.39,2.05,2.05,0,0,1,1.78-.91,2.14,2.14,0,0,1,1,.23,2.18,2.18,0,0,1,.74.68L122,47h.89v6.2a2.35,2.35,0,0,1-.68,1.81,2.82,2.82,0,0,1-2,.64,4.2,4.2,0,0,1-1-.12,3.59,3.59,0,0,1-.91-.34l.17-.87a3.1,3.1,0,0,0,.78.28,4.09,4.09,0,0,0,.91.1,1.63,1.63,0,0,0,1.19-.37,1.54,1.54,0,0,0,.37-1.13v-.7a2,2,0,0,1-.72.58,2.3,2.3,0,0,1-1,.2,2.11,2.11,0,0,1-1.77-.82,3.41,3.41,0,0,1-.63-2.15Zm1.12.12a2.69,2.69,0,0,0,.38,1.5,1.35,1.35,0,0,0,1.18.56,1.52,1.52,0,0,0,.85-.23,1.71,1.71,0,0,0,.56-.65V48.68a1.68,1.68,0,0,0-.56-.62,1.43,1.43,0,0,0-.84-.23,1.29,1.29,0,0,0-1.19.66,3.52,3.52,0,0,0-.38,1.73Z" transform="translate(0 0)"/><path class="cls-1" d="M128,48l-.57,0a1.28,1.28,0,0,0-.75.21,1.33,1.33,0,0,0-.47.59v4.4h-1.12V47h1l.11.9a2.08,2.08,0,0,1,.65-.75,1.47,1.47,0,0,1,.88-.26,1,1,0,0,1,.24,0l.19,0Z" transform="translate(0 0)"/><path class="cls-1" d="M133.58,53.19c0-.19-.07-.35-.09-.49a3.11,3.11,0,0,1,0-.43,2.67,2.67,0,0,1-.82.74,2.11,2.11,0,0,1-1.09.3,2,2,0,0,1-1.46-.49,1.8,1.8,0,0,1-.51-1.36,1.58,1.58,0,0,1,.72-1.38,3.36,3.36,0,0,1,1.94-.5h1.22V49a1.15,1.15,0,0,0-.33-.86,1.32,1.32,0,0,0-.94-.31,1.36,1.36,0,0,0-.88.27.83.83,0,0,0-.34.66h-1.06v0a1.48,1.48,0,0,1,.63-1.23,2.59,2.59,0,0,1,1.72-.55,2.52,2.52,0,0,1,1.69.53,1.85,1.85,0,0,1,.64,1.53v3c0,.22,0,.43,0,.64a4.29,4.29,0,0,0,.13.6Zm-1.86-.82a2,2,0,0,0,1.1-.31,1.49,1.49,0,0,0,.64-.72v-1H132.2a1.64,1.64,0,0,0-1.09.34,1,1,0,0,0-.4.8.84.84,0,0,0,.25.65A1.08,1.08,0,0,0,131.72,52.37Z" transform="translate(0 0)"/><path class="cls-1" d="M138.76,51.37l.1.44h0l.11-.44L140.42,47h1.14l-2.26,6.16h-.85L136.15,47h1.15Z" transform="translate(0 0)"/><path class="cls-1" d="M144.37,45.45h-1.13V44.31h1.13Zm0,7.74h-1.13V47h1.13Z" transform="translate(0 0)"/><path class="cls-1" d="M147.68,47l.08.92a2.15,2.15,0,0,1,.77-.76,2.05,2.05,0,0,1,1.05-.27,2,2,0,0,1,1.55.58,2.58,2.58,0,0,1,.54,1.8v3.89h-1.12V49.32a1.63,1.63,0,0,0-.32-1.15,1.27,1.27,0,0,0-1-.34,1.82,1.82,0,0,0-.88.2,1.54,1.54,0,0,0-.57.59v4.57h-1.13V47Z" transform="translate(0 0)"/><path class="cls-1" d="M153.69,50.22a4.1,4.1,0,0,1,.63-2.39,2.05,2.05,0,0,1,1.78-.91,2.14,2.14,0,0,1,1,.23,2.18,2.18,0,0,1,.74.68L158,47h.89v6.2a2.32,2.32,0,0,1-.69,1.81,2.79,2.79,0,0,1-2,.64,4.2,4.2,0,0,1-1-.12,3.59,3.59,0,0,1-.91-.34l.17-.87a3.1,3.1,0,0,0,.78.28,4.09,4.09,0,0,0,.91.1,1.63,1.63,0,0,0,1.19-.37,1.54,1.54,0,0,0,.37-1.13v-.7a2,2,0,0,1-.72.58,2.32,2.32,0,0,1-1,.2,2.1,2.1,0,0,1-1.76-.82,3.41,3.41,0,0,1-.63-2.15Zm1.12.12a2.69,2.69,0,0,0,.38,1.5,1.33,1.33,0,0,0,1.18.56,1.52,1.52,0,0,0,.85-.23,1.71,1.71,0,0,0,.56-.65V48.68a1.68,1.68,0,0,0-.56-.62,1.43,1.43,0,0,0-.84-.23,1.28,1.28,0,0,0-1.19.66,3.52,3.52,0,0,0-.38,1.73Z" transform="translate(0 0)"/><path class="cls-1" d="M168.37,53.19c0-.19-.07-.35-.09-.49a3.13,3.13,0,0,1,0-.43,2.67,2.67,0,0,1-.82.74,2,2,0,0,1-1.08.3,2,2,0,0,1-1.47-.49,1.84,1.84,0,0,1-.5-1.36,1.6,1.6,0,0,1,.71-1.38,3.38,3.38,0,0,1,1.94-.5h1.22V49a1.15,1.15,0,0,0-.33-.86,1.29,1.29,0,0,0-.93-.31,1.39,1.39,0,0,0-.89.27.82.82,0,0,0-.33.66h-1.07v0a1.5,1.5,0,0,1,.63-1.23,2.62,2.62,0,0,1,1.73-.55,2.49,2.49,0,0,1,1.68.53,1.85,1.85,0,0,1,.64,1.53v3a4.49,4.49,0,0,0,0,.64,3.19,3.19,0,0,0,.12.6Zm-1.87-.82a2,2,0,0,0,1.1-.31,1.49,1.49,0,0,0,.64-.72v-1H167a1.61,1.61,0,0,0-1.08.34,1,1,0,0,0-.41.8.84.84,0,0,0,.26.65A1.06,1.06,0,0,0,166.5,52.37Z" transform="translate(0 0)"/><path class="cls-1" d="M172.58,47l.08.92a2.15,2.15,0,0,1,.77-.76,2.05,2.05,0,0,1,1-.27,2,2,0,0,1,1.55.58,2.58,2.58,0,0,1,.54,1.8v3.89h-1.12V49.32a1.63,1.63,0,0,0-.32-1.15,1.27,1.27,0,0,0-1-.34,1.82,1.82,0,0,0-.88.2,1.54,1.54,0,0,0-.57.59v4.57h-1.13V47Z" transform="translate(0 0)"/><path class="cls-1" d="M178.53,50.22a4.1,4.1,0,0,1,.63-2.39,2.05,2.05,0,0,1,1.78-.91,2.25,2.25,0,0,1,1,.19,2,2,0,0,1,.72.59V44.31h1.12v8.88h-.86l-.17-.78a1.92,1.92,0,0,1-.75.67,2.23,2.23,0,0,1-1,.23,2.09,2.09,0,0,1-1.76-.82,3.36,3.36,0,0,1-.64-2.15Zm1.12.12a2.64,2.64,0,0,0,.38,1.5,1.35,1.35,0,0,0,1.19.56,1.51,1.51,0,0,0,.84-.23,1.68,1.68,0,0,0,.56-.64V48.66a1.74,1.74,0,0,0-.56-.61,1.49,1.49,0,0,0-.83-.22,1.27,1.27,0,0,0-1.19.66,3.41,3.41,0,0,0-.39,1.73Z" transform="translate(0 0)"/><path class="cls-1" d="M190.76,49.87v3.32h-1.13V44.9h3.18a2.94,2.94,0,0,1,2.06.68,2.57,2.57,0,0,1,0,3.61,2.94,2.94,0,0,1-2.06.68Zm0-.88h2.05a1.6,1.6,0,0,0,1.25-.45,1.61,1.61,0,0,0-1.25-2.76h-2.05Z" transform="translate(0 0)"/><path class="cls-1" d="M200.39,48l-.57,0a1.28,1.28,0,0,0-.75.21,1.33,1.33,0,0,0-.47.59v4.4h-1.12V47h1l.11.9a2.16,2.16,0,0,1,.64-.75,1.5,1.5,0,0,1,.89-.26,1,1,0,0,1,.24,0l.19,0Z" transform="translate(0 0)"/><path class="cls-1" d="M203.36,45.45h-1.13V44.31h1.13Zm0,7.74h-1.13V47h1.13Z" transform="translate(0 0)"/><path class="cls-1" d="M206.67,47l.08.92a2.15,2.15,0,0,1,.77-.76,2.05,2.05,0,0,1,1-.27,2,2,0,0,1,1.55.58,2.58,2.58,0,0,1,.54,1.8v3.89h-1.12V49.32a1.63,1.63,0,0,0-.32-1.15,1.27,1.27,0,0,0-1-.34,1.82,1.82,0,0,0-.88.2,1.54,1.54,0,0,0-.57.59v4.57h-1.13V47Z" transform="translate(0 0)"/><path class="cls-1" d="M214.44,45.54V47h1.16v.83h-1.16V51.6a.84.84,0,0,0,.18.61.63.63,0,0,0,.47.18l.22,0,.2,0,.15.77a1.07,1.07,0,0,1-.37.17,2,2,0,0,1-.48.06,1.47,1.47,0,0,1-1.09-.41,1.81,1.81,0,0,1-.41-1.3V47.86h-1V47h1V45.54Z" transform="translate(0 0)"/><path class="cls-1" d="M218.6,45.45h-1.12V44.31h1.12Zm0,7.74h-1.12V47h1.12Z" transform="translate(0 0)"/><path class="cls-1" d="M221.91,47,222,48a2.24,2.24,0,0,1,.77-.76,2.06,2.06,0,0,1,1.06-.27,2,2,0,0,1,1.54.58,2.54,2.54,0,0,1,.55,1.8v3.89h-1.12V49.32a1.68,1.68,0,0,0-.32-1.15,1.31,1.31,0,0,0-1-.34,1.84,1.84,0,0,0-.88.2,1.54,1.54,0,0,0-.57.59v4.57h-1.12V47Z" transform="translate(0 0)"/><path class="cls-1" d="M227.92,50.22a4,4,0,0,1,.64-2.39,2,2,0,0,1,1.77-.91,2,2,0,0,1,1.78.91l.13-.8h.9v6.2a2.32,2.32,0,0,1-.69,1.81,2.8,2.8,0,0,1-2,.64,4.34,4.34,0,0,1-1-.12,3.91,3.91,0,0,1-.91-.34l.17-.87a3,3,0,0,0,.79.28,3.94,3.94,0,0,0,.9.1,1.62,1.62,0,0,0,1.19-.37,1.54,1.54,0,0,0,.38-1.13v-.7a2.13,2.13,0,0,1-.73.58,2.27,2.27,0,0,1-1,.2,2.09,2.09,0,0,1-1.76-.82,3.36,3.36,0,0,1-.64-2.15Zm1.12.12a2.61,2.61,0,0,0,.39,1.5,1.32,1.32,0,0,0,1.17.56,1.52,1.52,0,0,0,.85-.23,1.73,1.73,0,0,0,.57-.65V48.68a1.8,1.8,0,0,0-.57-.62,1.42,1.42,0,0,0-.83-.23,1.27,1.27,0,0,0-1.19.66,3.41,3.41,0,0,0-.39,1.73Z" transform="translate(0 0)"/><path class="cls-1" d="M240.09,49.87v3.32H239V44.9h3.17a2.92,2.92,0,0,1,2.06.68,2.57,2.57,0,0,1,0,3.61,2.92,2.92,0,0,1-2.06.68Zm0-.88h2a1.49,1.49,0,0,0,1.67-1.6,1.69,1.69,0,0,0-.41-1.15,1.65,1.65,0,0,0-1.26-.46h-2Z" transform="translate(0 0)"/><path class="cls-1" d="M248,53.19H246.9V44.31H248Z" transform="translate(0 0)"/><path class="cls-1" d="M254.12,53.19c0-.19-.07-.35-.09-.49s0-.29,0-.43a2.63,2.63,0,0,1-.81.74,2.11,2.11,0,0,1-1.09.3,2,2,0,0,1-1.46-.49,1.8,1.8,0,0,1-.51-1.36,1.58,1.58,0,0,1,.72-1.38,3.34,3.34,0,0,1,1.94-.5H254V49a1.15,1.15,0,0,0-.33-.86,1.29,1.29,0,0,0-.93-.31,1.36,1.36,0,0,0-.88.27.81.81,0,0,0-.34.66h-1.06v0a1.49,1.49,0,0,1,.62-1.23,2.64,2.64,0,0,1,1.73-.55,2.53,2.53,0,0,1,1.69.53,1.88,1.88,0,0,1,.64,1.53v3c0,.22,0,.43,0,.64a3.22,3.22,0,0,0,.13.6Zm-1.86-.82a2,2,0,0,0,1.1-.31,1.47,1.47,0,0,0,.63-.72v-1h-1.25a1.62,1.62,0,0,0-1.09.34,1,1,0,0,0-.41.8.84.84,0,0,0,.26.65A1.07,1.07,0,0,0,252.26,52.37Z" transform="translate(0 0)"/><path class="cls-1" d="M258.33,47l.08.92a2.24,2.24,0,0,1,.77-.76,2.06,2.06,0,0,1,1.06-.27,2,2,0,0,1,1.54.58,2.54,2.54,0,0,1,.55,1.8v3.89h-1.12V49.32a1.63,1.63,0,0,0-.33-1.15,1.27,1.27,0,0,0-1-.34,1.84,1.84,0,0,0-.88.2,1.54,1.54,0,0,0-.57.59v4.57h-1.12V47Z" transform="translate(0 0)"/><path class="cls-1" d="M266.1,45.54V47h1.17v.83H266.1V51.6a.84.84,0,0,0,.18.61.65.65,0,0,0,.48.18l.21,0,.2,0,.15.77a1,1,0,0,1-.37.17,2,2,0,0,1-.48.06,1.49,1.49,0,0,1-1.09-.41,1.81,1.81,0,0,1-.4-1.3V47.86h-1V47h1V45.54Z" transform="translate(0 0)"/></g></g></svg>